<mxfile host="app.diagrams.net" modified="2023-05-12T16:03:50.898Z" agent="Mozilla/5.0 (Windows NT 10.0; Win64; x64) AppleWebKit/537.36 (KHTML, like Gecko) Chrome/113.0.0.0 Safari/537.36" etag="OglauFwFihcpW9Tni-bB" version="21.2.9" type="device">
  <diagram name="Page-1" id="2cc2dc42-3aac-f2a9-1cec-7a8b7cbee084">
    <mxGraphModel dx="1221" dy="711" grid="1" gridSize="10" guides="1" tooltips="1" connect="1" arrows="1" fold="1" page="1" pageScale="1" pageWidth="1100" pageHeight="850" background="none" math="0" shadow="0">
      <root>
        <mxCell id="0" />
        <mxCell id="1" parent="0" />
        <mxCell id="7026571954dc6520-1" value="" style="strokeWidth=1;shadow=0;dashed=0;align=center;html=1;shape=mxgraph.mockup.containers.browserWindow;rSize=0;strokeColor=#666666;mainText=,;recursiveResize=0;rounded=0;labelBackgroundColor=none;fontFamily=Verdana;fontSize=12" parent="1" vertex="1">
          <mxGeometry x="30" y="20" width="1050" height="820" as="geometry" />
        </mxCell>
        <mxCell id="7026571954dc6520-2" value="Sign Up page" style="strokeWidth=1;shadow=0;dashed=0;align=center;html=1;shape=mxgraph.mockup.containers.anchor;fontSize=17;fontColor=#666666;align=left;" parent="7026571954dc6520-1" vertex="1">
          <mxGeometry x="60" y="12" width="110" height="26" as="geometry" />
        </mxCell>
        <mxCell id="7026571954dc6520-3" value="https://www.eduteach.com/signup/cover" style="strokeWidth=1;shadow=0;dashed=0;align=center;html=1;shape=mxgraph.mockup.containers.anchor;rSize=0;fontSize=17;fontColor=#666666;align=left;" parent="7026571954dc6520-1" vertex="1">
          <mxGeometry x="130" y="60" width="250" height="26" as="geometry" />
        </mxCell>
        <mxCell id="E_Gb3g4xjWbWAUdhLdiV-6" value="&lt;font face=&quot;Comic Sans MS&quot; style=&quot;&quot;&gt;&lt;span style=&quot;font-size: 20px;&quot;&gt;&lt;b&gt;Online Teacher&amp;nbsp;trainer&lt;/b&gt;&lt;/span&gt;&lt;/font&gt;" style="text;html=1;strokeColor=none;fillColor=none;align=center;verticalAlign=middle;whiteSpace=wrap;rounded=0;" parent="7026571954dc6520-1" vertex="1">
          <mxGeometry x="280" y="120" width="270" height="30" as="geometry" />
        </mxCell>
        <mxCell id="E_Gb3g4xjWbWAUdhLdiV-9" value="" style="shape=ext;double=1;rounded=1;whiteSpace=wrap;html=1;" parent="7026571954dc6520-1" vertex="1">
          <mxGeometry x="166" y="255" width="708" height="250" as="geometry" />
        </mxCell>
        <mxCell id="E_Gb3g4xjWbWAUdhLdiV-14" value="" style="image;html=1;image=img/lib/clip_art/people/Telesales_Man_128x128.png" parent="7026571954dc6520-1" vertex="1">
          <mxGeometry x="615" y="291" width="140" height="140" as="geometry" />
        </mxCell>
        <mxCell id="E_Gb3g4xjWbWAUdhLdiV-13" value="" style="image;html=1;image=img/lib/clip_art/people/Tech_Man_128x128.png" parent="7026571954dc6520-1" vertex="1">
          <mxGeometry x="270" y="291" width="140" height="140" as="geometry" />
        </mxCell>
        <mxCell id="E_Gb3g4xjWbWAUdhLdiV-10" value="" style="endArrow=none;html=1;rounded=0;entryX=0.5;entryY=1;entryDx=0;entryDy=0;exitX=0.5;exitY=0;exitDx=0;exitDy=0;" parent="7026571954dc6520-1" source="E_Gb3g4xjWbWAUdhLdiV-9" target="E_Gb3g4xjWbWAUdhLdiV-9" edge="1">
          <mxGeometry width="50" height="50" relative="1" as="geometry">
            <mxPoint x="551" y="275" as="sourcePoint" />
            <mxPoint x="574" y="355" as="targetPoint" />
          </mxGeometry>
        </mxCell>
        <mxCell id="E_Gb3g4xjWbWAUdhLdiV-15" value="Trainee Teacher" style="html=1;shadow=0;dashed=0;shape=mxgraph.bootstrap.rrect;rSize=5;strokeColor=none;strokeWidth=1;fillColor=#33A64C;fontColor=#FFFFFF;whiteSpace=wrap;align=center;verticalAlign=middle;spacingLeft=0;fontStyle=0;fontSize=16;spacing=5;" parent="7026571954dc6520-1" vertex="1">
          <mxGeometry x="272" y="449" width="140" height="40" as="geometry" />
        </mxCell>
        <mxCell id="E_Gb3g4xjWbWAUdhLdiV-16" value="Lecturer" style="html=1;shadow=0;dashed=0;shape=mxgraph.bootstrap.rrect;rSize=5;strokeColor=none;strokeWidth=1;fillColor=#33A64C;fontColor=#FFFFFF;whiteSpace=wrap;align=center;verticalAlign=middle;spacingLeft=0;fontStyle=0;fontSize=16;spacing=5;" parent="7026571954dc6520-1" vertex="1">
          <mxGeometry x="616" y="449" width="140" height="40" as="geometry" />
        </mxCell>
        <mxCell id="E_Gb3g4xjWbWAUdhLdiV-17" value="&lt;b&gt;&lt;font face=&quot;Comic Sans MS&quot; style=&quot;font-size: 21px;&quot;&gt;SIGN UP AS&lt;/font&gt;&lt;/b&gt;" style="text;html=1;strokeColor=none;fillColor=none;align=center;verticalAlign=middle;whiteSpace=wrap;rounded=0;" parent="7026571954dc6520-1" vertex="1">
          <mxGeometry x="425" y="194" width="190" height="30" as="geometry" />
        </mxCell>
        <mxCell id="8-8FK9FYDPb4iOUhdsU--2" value="" style="rounded=0;whiteSpace=wrap;html=1;fillColor=#647687;strokeColor=#314354;fontColor=#ffffff;" parent="7026571954dc6520-1" vertex="1">
          <mxGeometry y="710" width="1050" height="110" as="geometry" />
        </mxCell>
        <mxCell id="8-8FK9FYDPb4iOUhdsU--4" value="" style="dashed=0;outlineConnect=0;html=1;align=center;labelPosition=center;verticalLabelPosition=bottom;verticalAlign=top;shape=mxgraph.weblogos.app_store;fillColor=#000000;strokeColor=none" parent="7026571954dc6520-1" vertex="1">
          <mxGeometry x="741.8" y="761.85" width="61.2" height="20" as="geometry" />
        </mxCell>
        <mxCell id="8-8FK9FYDPb4iOUhdsU--5" value="" style="dashed=0;outlineConnect=0;html=1;align=center;labelPosition=center;verticalLabelPosition=bottom;verticalAlign=top;shape=mxgraph.weblogos.app_store_iphone;fillColor=#75797C;strokeColor=none" parent="7026571954dc6520-1" vertex="1">
          <mxGeometry x="812.8" y="761.85" width="61.2" height="20" as="geometry" />
        </mxCell>
        <mxCell id="8-8FK9FYDPb4iOUhdsU--14" value="" style="dashed=0;outlineConnect=0;html=1;align=center;labelPosition=center;verticalLabelPosition=bottom;verticalAlign=top;shape=mxgraph.webicons.google_play;fillColor=#000000" parent="7026571954dc6520-1" vertex="1">
          <mxGeometry x="658.8" y="761.25" width="69.4" height="20.6" as="geometry" />
        </mxCell>
        <mxCell id="8-8FK9FYDPb4iOUhdsU--15" value="&lt;font style=&quot;font-size: 11px;&quot; color=&quot;#ffffff&quot;&gt;Get us on&lt;/font&gt;" style="text;html=1;strokeColor=none;fillColor=none;align=center;verticalAlign=middle;whiteSpace=wrap;rounded=0;" parent="7026571954dc6520-1" vertex="1">
          <mxGeometry x="630" y="731.25" width="60" height="30" as="geometry" />
        </mxCell>
        <mxCell id="8-8FK9FYDPb4iOUhdsU--16" value="&lt;p style=&quot;line-height: 90%;&quot;&gt;&lt;/p&gt;&lt;div style=&quot;text-align: left; line-height: 40%; font-size: 11px;&quot;&gt;&lt;p style=&quot;margin: 0px 0px 10px; color: rgb(189, 195, 199); font-family: &amp;quot;Open Sans&amp;quot;, sans-serif; font-size: 14px; line-height: 40%;&quot; dir=&quot;ltr&quot;&gt;&lt;span style=&quot;background-color: rgb(100, 118, 135);&quot;&gt;DO YOU NEED ANY&lt;/span&gt;&lt;/p&gt;&lt;p style=&quot;margin: 0px 0px 10px; color: rgb(189, 195, 199); font-family: &amp;quot;Open Sans&amp;quot;, sans-serif; font-size: 2rem; line-height: 40%;&quot;&gt;&lt;span style=&quot;font-weight: 700; font-size: 20px; background-color: rgb(100, 118, 135);&quot;&gt;SUPPORT ?&lt;/span&gt;&lt;/p&gt;&lt;/div&gt;&lt;p&gt;&lt;/p&gt;" style="text;html=1;strokeColor=none;fillColor=none;align=center;verticalAlign=middle;whiteSpace=wrap;rounded=0;" parent="7026571954dc6520-1" vertex="1">
          <mxGeometry x="80" y="713.5" width="160" height="71.5" as="geometry" />
        </mxCell>
        <mxCell id="8-8FK9FYDPb4iOUhdsU--19" value="" style="shape=image;html=1;verticalAlign=top;verticalLabelPosition=bottom;labelBackgroundColor=#ffffff;imageAspect=0;aspect=fixed;image=https://cdn1.iconfinder.com/data/icons/logos-brands-1/24/logo_brand_brands_logos_microsoft_store_windows-128.png" parent="7026571954dc6520-1" vertex="1">
          <mxGeometry x="881" y="754.25" width="30" height="30" as="geometry" />
        </mxCell>
        <mxCell id="8-8FK9FYDPb4iOUhdsU--20" value="" style="sketch=0;pointerEvents=1;shadow=0;dashed=0;html=1;strokeColor=none;fillColor=#505050;labelPosition=center;verticalLabelPosition=bottom;verticalAlign=top;outlineConnect=0;align=center;shape=mxgraph.office.concepts.calendar;" parent="7026571954dc6520-1" vertex="1">
          <mxGeometry x="948" y="718" width="89" height="72" as="geometry" />
        </mxCell>
        <mxCell id="8-8FK9FYDPb4iOUhdsU--21" value="&lt;p style=&quot;line-height: 90%;&quot;&gt;Visit Support&lt;br&gt;&lt;u&gt;support.eduteach.com&lt;/u&gt;&lt;/p&gt;" style="fillColor=none;strokeColor=none;html=1;fontColor=#0057D8;align=left;fontSize=12;sketch=0;" parent="7026571954dc6520-1" vertex="1">
          <mxGeometry x="114" y="764.85" width="125" height="33" as="geometry" />
        </mxCell>
        <mxCell id="8-8FK9FYDPb4iOUhdsU--22" value="" style="html=1;shadow=0;dashed=0;shape=mxgraph.atlassian.checkbox;fillColor=#008465;strokeColor=none;html=1;sketch=0;" parent="7026571954dc6520-1" vertex="1">
          <mxGeometry x="96" y="774.85" width="14" height="14" as="geometry" />
        </mxCell>
        <mxCell id="8-8FK9FYDPb4iOUhdsU--25" value="" style="sketch=0;pointerEvents=1;shadow=0;dashed=0;html=1;strokeColor=none;fillColor=#505050;labelPosition=center;verticalLabelPosition=bottom;verticalAlign=top;outlineConnect=0;align=center;shape=mxgraph.office.users.call_center_agent;" parent="7026571954dc6520-1" vertex="1">
          <mxGeometry x="20" y="718.37" width="60" height="71.75" as="geometry" />
        </mxCell>
        <mxCell id="8-8FK9FYDPb4iOUhdsU--26" value="" style="shape=mxgraph.signs.tech.telephone_3;html=1;pointerEvents=1;fillColor=#000000;strokeColor=none;verticalLabelPosition=bottom;verticalAlign=top;align=center;" parent="7026571954dc6520-1" vertex="1">
          <mxGeometry x="247" y="735.25" width="29.31" height="40" as="geometry" />
        </mxCell>
        <mxCell id="8-8FK9FYDPb4iOUhdsU--27" value="&lt;b&gt;&lt;font style=&quot;font-size: 16px;&quot;&gt;+94 71 234 5678&amp;nbsp;&lt;/font&gt;&lt;/b&gt;" style="text;html=1;strokeColor=none;fillColor=none;align=center;verticalAlign=middle;whiteSpace=wrap;rounded=0;" parent="7026571954dc6520-1" vertex="1">
          <mxGeometry x="257" y="737.37" width="170" height="30" as="geometry" />
        </mxCell>
        <mxCell id="8-8FK9FYDPb4iOUhdsU--28" value="" style="rounded=0;whiteSpace=wrap;html=1;fillColor=#000000;fontColor=#ffffff;strokeColor=#432D57;" parent="7026571954dc6520-1" vertex="1">
          <mxGeometry y="794" width="1050" height="26" as="geometry" />
        </mxCell>
        <mxCell id="E_Gb3g4xjWbWAUdhLdiV-20" value="&lt;font color=&quot;#ffffff&quot; style=&quot;font-size: 7px;&quot;&gt;Created by MLB_11.01_9&lt;/font&gt;" style="text;html=1;strokeColor=none;fillColor=none;align=center;verticalAlign=middle;whiteSpace=wrap;rounded=0;" parent="7026571954dc6520-1" vertex="1">
          <mxGeometry x="430" y="790" width="181" height="30" as="geometry" />
        </mxCell>
        <mxCell id="8-8FK9FYDPb4iOUhdsU--7" value="" style="shape=image;html=1;verticalAlign=top;verticalLabelPosition=bottom;labelBackgroundColor=#ffffff;imageAspect=0;aspect=fixed;image=https://cdn2.iconfinder.com/data/icons/social-media-2421/512/Telegram-128.png;imageBackground=default;" parent="7026571954dc6520-1" vertex="1">
          <mxGeometry x="991" y="797" width="20" height="20" as="geometry" />
        </mxCell>
        <mxCell id="8-8FK9FYDPb4iOUhdsU--29" value="" style="shape=image;html=1;verticalAlign=top;verticalLabelPosition=bottom;labelBackgroundColor=#ffffff;imageAspect=0;aspect=fixed;image=https://cdn3.iconfinder.com/data/icons/picons-social/57/46-facebook-128.png;imageBackground=default;" parent="7026571954dc6520-1" vertex="1">
          <mxGeometry x="960" y="797.85" width="20" height="20" as="geometry" />
        </mxCell>
        <mxCell id="8-8FK9FYDPb4iOUhdsU--30" value="" style="shape=image;html=1;verticalAlign=top;verticalLabelPosition=bottom;labelBackgroundColor=#ffffff;imageAspect=0;aspect=fixed;image=https://cdn1.iconfinder.com/data/icons/social-media-circle-7/512/Circled_Twitter_svg-128.png;imageBackground=default;" parent="7026571954dc6520-1" vertex="1">
          <mxGeometry x="929" y="797.85" width="20" height="20" as="geometry" />
        </mxCell>
        <mxCell id="8-8FK9FYDPb4iOUhdsU--33" value="" style="shape=image;html=1;verticalAlign=top;verticalLabelPosition=bottom;labelBackgroundColor=#ffffff;imageAspect=0;aspect=fixed;image=https://cdn4.iconfinder.com/data/icons/ionicons/512/icon-social-github-128.png;imageBackground=default;" parent="7026571954dc6520-1" vertex="1">
          <mxGeometry x="1021" y="797.85" width="20" height="20" as="geometry" />
        </mxCell>
        <mxCell id="8-8FK9FYDPb4iOUhdsU--34" value="" style="shape=image;html=1;verticalAlign=top;verticalLabelPosition=bottom;labelBackgroundColor=#ffffff;imageAspect=0;aspect=fixed;image=https://cdn0.iconfinder.com/data/icons/eon-social-media-contact-info-2/32/in_linkedin_portfolio_social_media-128.png;imageBackground=default;" parent="7026571954dc6520-1" vertex="1">
          <mxGeometry x="900" y="798" width="20" height="20" as="geometry" />
        </mxCell>
        <mxCell id="8-8FK9FYDPb4iOUhdsU--35" value="" style="shape=image;html=1;verticalAlign=top;verticalLabelPosition=bottom;labelBackgroundColor=#ffffff;imageAspect=0;aspect=fixed;image=https://cdn0.iconfinder.com/data/icons/social-media-and-logos-12/32/Google_Google-128.png;imageBackground=default;" parent="7026571954dc6520-1" vertex="1">
          <mxGeometry x="869" y="798" width="20" height="20" as="geometry" />
        </mxCell>
        <mxCell id="8-8FK9FYDPb4iOUhdsU--41" value="&lt;font color=&quot;#ffffff&quot;&gt;https://www.eduteach.com&lt;/font&gt;" style="text;html=1;strokeColor=none;fillColor=none;align=center;verticalAlign=middle;whiteSpace=wrap;rounded=0;" parent="7026571954dc6520-1" vertex="1">
          <mxGeometry x="10" y="792" width="170" height="30" as="geometry" />
        </mxCell>
        <mxCell id="8-8FK9FYDPb4iOUhdsU--42" value="" style="shape=mxgraph.signs.tech.mail;html=1;pointerEvents=1;fillColor=#647687;strokeColor=#314354;verticalLabelPosition=bottom;verticalAlign=top;align=center;fontColor=#ffffff;" parent="7026571954dc6520-1" vertex="1">
          <mxGeometry x="180" y="798" width="18" height="17" as="geometry" />
        </mxCell>
        <mxCell id="8-8FK9FYDPb4iOUhdsU--44" value="&lt;font color=&quot;#ffffff&quot;&gt;info@eduteach.lk&lt;/font&gt;" style="text;html=1;strokeColor=none;fillColor=none;align=center;verticalAlign=middle;whiteSpace=wrap;rounded=0;" parent="7026571954dc6520-1" vertex="1">
          <mxGeometry x="166" y="794" width="170" height="30" as="geometry" />
        </mxCell>
        <mxCell id="E_Gb3g4xjWbWAUdhLdiV-1" value="" style="rounded=1;whiteSpace=wrap;html=1;" parent="1" vertex="1">
          <mxGeometry x="35" y="137" width="1040" height="40" as="geometry" />
        </mxCell>
        <mxCell id="E_Gb3g4xjWbWAUdhLdiV-7" value="&lt;font size=&quot;1&quot; face=&quot;Comic Sans MS&quot; style=&quot;&quot;&gt;&lt;span style=&quot;font-size: 11px;&quot;&gt;Contact Us&amp;nbsp; &amp;nbsp; &amp;nbsp; &amp;nbsp;Help &amp;amp; Support&lt;/span&gt;&lt;/font&gt;" style="text;html=1;strokeColor=none;fillColor=none;align=right;verticalAlign=middle;whiteSpace=wrap;rounded=0;" parent="1" vertex="1">
          <mxGeometry x="792" y="142" width="270" height="30" as="geometry" />
        </mxCell>
        <mxCell id="E_Gb3g4xjWbWAUdhLdiV-18" value="Lorem ipsum dolor sit amet, consectetur adipisicing elit, sed do eiusmod tempor incididunt ut labore et dolore magna aliqua. Ut enim ad minim veniam, quis nostrud exercitation ullamco laboris nisi ut aliquip ex ea commodo consequat. Duis aute irure dolor in reprehenderit in voluptate velit esse cillum dolore eu fugiat nulla pariatur. Excepteur sint occaecat cupidatat non proident, sunt in culpa qui officia deserunt mollit anim id est laborum.&#xa;Sed ut perspiciatis unde omnis iste natus error sit voluptatem accusantium doloremque laudantium, totam rem aperiam, eaque ipsa quae ab illo inventore veritatis et quasi architecto beatae vitae dicta sunt explicabo. Nemo enim ipsam voluptatem quia voluptas sit aspernatur aut odit aut fugit, sed quia consequuntur magni dolores eos qui ratione voluptatem sequi nesciunt. Neque porro quisquam est, qui dolorem ipsum quia dolor sit amet, consectetur, adipisci velit, sed quia non numquam eius modi tempora incidunt ut labore et dolore magnam aliquam quaerat voluptatem. Ut enim ad minima veniam, quis nostrum exercitationem ullam corporis suscipit laboriosam, nisi ut aliquid ex ea commodi consequatur? Quis autem vel eum iure reprehenderit qui in ea voluptate velit esse quam nihil molestiae consequatur, vel illum qui dolorem eum fugiat quo voluptas nulla pariatur?" style="text;spacingTop=-5;whiteSpace=wrap;html=1;align=left;fontSize=12;fontFamily=Helvetica;fillColor=none;strokeColor=none;" parent="1" vertex="1">
          <mxGeometry x="150" y="550" width="830" height="150" as="geometry" />
        </mxCell>
        <mxCell id="8-8FK9FYDPb4iOUhdsU--40" value="" style="html=1;dashed=0;aspect=fixed;verticalLabelPosition=bottom;verticalAlign=top;align=center;shape=mxgraph.gmdl.bookmark;strokeColor=none;fillColor=#737373;shadow=0;sketch=0;" parent="1" vertex="1">
          <mxGeometry x="38" y="818" width="9" height="15" as="geometry" />
        </mxCell>
        <mxCell id="OX4iNTYwFWigsda2uN99-1" value="&lt;font size=&quot;1&quot; face=&quot;Comic Sans MS&quot; style=&quot;&quot;&gt;&lt;b style=&quot;font-size: 22px;&quot;&gt;EduTeach&lt;/b&gt;&lt;/font&gt;" style="text;html=1;strokeColor=none;fillColor=none;align=center;verticalAlign=middle;whiteSpace=wrap;rounded=0;" vertex="1" parent="1">
          <mxGeometry x="106" y="142" width="160" height="30" as="geometry" />
        </mxCell>
        <mxCell id="OX4iNTYwFWigsda2uN99-2" value="" style="verticalLabelPosition=bottom;shadow=0;dashed=0;align=center;html=1;verticalAlign=top;strokeWidth=1;shape=mxgraph.mockup.graphics.simpleIcon;strokeColor=#999999;" vertex="1" parent="1">
          <mxGeometry x="56" y="143" width="50" height="30" as="geometry" />
        </mxCell>
      </root>
    </mxGraphModel>
  </diagram>
</mxfile>
